<svg xmlns="http://www.w3.org/2000/svg" viewBox="0 0 207 388">
  <g transform="translate(-211.23685,-139.44058)">
    <path
       d="m 215.53442,527.12511 c -2.70682,-1.85064 -3.79183,-3.62017 -4.16818,-6.79787 -0.27493,-2.32134 -0.14446,-3.10985 0.71003,-4.29105 0.57575,-0.79591 1.60359,-2.77702 2.28407,-4.40246 1.22178,-2.91843 4.45561,-9.71967 5.36529,-11.28401 1.10876,-1.90673 5.97883,-13.22954 5.97403,-13.88948 -0.002,-0.39864 0.33,-1.48674 0.73981,-2.418 1.03262,-2.34656 2.0117,-8.62021 2.21626,-14.20108 0.0945,-2.57775 0.33111,-8.91833 0.52582,-14.09018 0.30705,-8.1554 0.18207,-10.75825 -0.94175,-19.61269 -1.0374,-8.17362 -1.21539,-11.28078 -0.89263,-15.58268 0.22172,-2.95535 0.68212,-10.81385 1.02308,-17.46337 0.34511,-6.73021 1.09813,-14.82946 1.69859,-18.26936 0.59325,-3.39863 1.14639,-6.66294 1.2292,-7.25401 0.68374,-4.8806 1.13012,-7.07544 2.29488,-11.28401 0.73614,-2.65981 1.67074,-6.28681 2.07691,-8.06002 1.57452,-6.87393 3.46693,-11.95229 9.91149,-26.59803 1.23541,-2.80757 2.91501,-6.67638 3.73243,-8.59735 1.42108,-3.33959 4.35051,-9.58655 9.47956,-20.21502 1.30081,-2.69555 2.36511,-5.05791 2.36511,-5.24968 0,-0.19178 0.57716,-1.26296 1.28257,-2.38041 2.50158,-3.96276 9.69422,-23.91203 15.04908,-41.73965 0.71016,-2.36427 2.27052,-7.02467 3.46748,-10.35644 1.88752,-5.25402 3.66194,-13.40736 4.58713,-21.07761 0.54594,-4.52605 3.19553,-18.7062 3.81527,-20.41869 1.69331,-4.67896 2.71602,-7.27489 2.96384,-7.52309 0.14778,-0.14799 0.73177,-1.11519 1.29778,-2.14933 0.56601,-1.03415 1.70157,-3.08927 2.52349,-4.56694 1.9682,-3.53852 6.93971,-8.70035 10.95543,-11.37483 5.32855,-3.54883 13.61789,-6.43892 22.14678,-7.72152 4.07362,-0.6126 7.99856,-1.21387 8.72208,-1.33614 0.72352,-0.12228 2.77882,-0.35964 4.56734,-0.52746 7.28128,-0.68324 10.54274,-1.84595 21.02933,-7.49695 2.02117,-1.08917 5.91911,-2.39276 10.20935,-3.41431 6.19586,-1.47531 7.87055,-1.65662 15.62062,-1.69107 8.73955,-0.0389 16.14583,0.82398 20.61871,2.4021 2.66811,0.94136 8.33975,4.76621 8.78392,5.92371 0.70588,1.8395 0.27629,3.40533 -1.37798,5.02268 -0.94271,0.92167 -2.2658,1.67577 -2.94021,1.67577 -2.58886,0 -17.1868,4.12478 -20.14606,5.69245 -0.78443,0.41556 -1.79193,0.75556 -2.23889,0.75556 -0.44695,0 -0.89325,0.18135 -0.99176,0.40301 -0.0985,0.22166 -1.75081,1.19796 -3.67179,2.16957 -1.92097,0.9716 -4.93442,2.66137 -6.69657,3.75504 -5.17812,3.21375 -14.25946,12.15691 -14.25946,14.04246 0,0.24256 -0.48716,1.06034 -1.08258,1.8173 -1.47327,1.87295 -4.29076,7.29421 -4.29076,8.25604 0,0.4295 -0.45698,1.7953 -1.01549,3.0351 -0.55853,1.23981 -1.4389,3.5841 -1.9564,5.20953 -0.5175,1.62544 -1.16744,3.40533 -1.44432,3.95533 -0.69253,1.37566 -1.81072,7.32128 -3.65206,19.4187 -0.62976,4.13747 -1.14191,8.47135 -1.13811,9.63083 0.0111,3.38021 0.67624,8.55655 1.2341,9.60389 0.55205,1.03642 2.23219,7.01185 3.20352,11.39333 0.32759,1.47767 0.82919,2.97737 1.11468,3.33268 0.28549,0.3553 0.60908,1.2016 0.7191,1.88067 0.25281,1.5605 1.74118,6.88389 2.22312,7.95133 0.20015,0.4433 0.66532,2.2568 1.03372,4.03001 0.89274,4.29694 1.54664,6.92551 2.60658,10.47801 0.48497,1.62544 1.20463,4.40615 1.59924,6.17934 0.3946,1.77321 1.48249,6.18044 2.41751,9.79383 0.93503,3.61341 1.79286,7.24042 1.90629,8.06001 0.11344,0.81961 0.5549,3.9082 0.98103,6.86353 0.42612,2.95534 0.81684,6.32656 0.86826,7.49161 0.0514,1.16503 0.41446,2.85764 0.80677,3.76133 0.39231,0.90369 0.9813,3.21479 1.30889,5.13575 1.62651,9.53791 2.71847,17.36796 2.9974,21.49337 0.95356,14.1027 1.29163,38.54075 0.66138,47.80732 -0.32969,4.84738 -2.0416,11.41038 -3.91065,14.99244 -0.40512,0.77641 -0.73807,1.80521 -0.73989,2.28621 -0.002,0.481 -0.36602,1.17555 -0.80932,1.54345 -0.4433,0.36792 -0.806,0.90646 -0.806,1.19677 0,1.08773 -2.84119,6.16135 -5.047,9.01258 -5.43103,7.02021 -6.93589,10.80804 -9.39295,23.64271 -2.10056,10.97245 -2.0827,24.6052 0.0418,31.92671 1.47894,5.09667 4.81054,8.60526 8.69901,9.16112 2.78603,0.39827 7.02327,2.16655 8.41298,3.5109 1.32893,1.28554 2.51016,3.40352 3.11019,5.57665 0.47291,1.71275 0.40718,2.16279 -0.43957,3.00954 -2.70657,2.70657 -10.88271,4.41962 -20.60204,4.3165 -2.1218,-0.0225 -10.87002,0.1076 -19.4405,0.28913 -26.50264,0.56135 -26.58753,0.55934 -29.01605,-0.68725 l -2.14933,-1.10329 -3.22401,1.54665 c -4.49553,2.15665 -7.82799,2.64139 -18.29894,2.66182 -5.00781,0.01 -11.76489,0.24077 -15.01577,0.51336 -14.50372,1.21614 -20.7557,1.59124 -31.16538,1.86985 -4.433,0.11865 -10.84071,0.36964 -14.23935,0.55776 -5.87796,0.32535 -6.26866,0.28096 -8.01061,-0.91001 z m 37.1616,-20.6108 c 1.99519,-1.61733 3.83167,-2.94059 4.08106,-2.94059 0.24939,0 0.87479,-0.46558 1.38977,-1.03462 1.38814,-1.53389 8.59853,-4.80945 13.20091,-5.99695 3.15318,-0.81358 11.97827,-0.82639 12.24781,-0.0177 0.11024,0.33074 0.53358,0.60135 0.94075,0.60135 1.03387,0 6.28795,4.33822 10.5102,8.67813 1.95179,2.00619 4.14846,3.87565 4.88148,4.15433 3.29573,1.25305 6.71797,-0.21318 17.36183,-7.43853 5.77554,-3.92059 6.95112,-4.61025 9.40335,-5.51646 7.02288,-2.59528 12.40582,-1.4792 20.44332,4.2387 1.34345,0.95572 3.12608,1.99753 3.96141,2.31512 1.43272,0.54472 1.49684,0.50828 1.13176,-0.64326 -0.64491,-2.03421 -1.90115,-7.51974 -2.30996,-10.08671 -0.63746,-4.00268 -0.40762,-23.15414 0.30307,-25.2547 0.70295,-2.07763 2.02972,-9.37723 2.53932,-13.97069 0.18032,-1.62543 0.70991,-3.54357 1.17688,-4.26254 0.46696,-0.71895 1.29783,-3.01606 1.84638,-5.10466 3.66017,-13.93633 4.00775,-15.44135 5.28248,-22.87284 0.22812,-1.32991 0.79751,-4.59421 1.26533,-7.25401 1.81203,-10.30252 2.19238,-13.0677 3.33089,-24.21609 1.07304,-10.5073 1.3158,-45.65203 0.35605,-51.54803 -0.33675,-2.06873 -0.86971,-6.02919 -1.18436,-8.80102 -0.66699,-5.87564 -2.2224,-13.80142 -3.75623,-19.14034 -0.59434,-2.06874 -1.21332,-4.48674 -1.37553,-5.37334 -0.30118,-1.64633 -2.24059,-9.04587 -4.01376,-15.31403 -0.54341,-1.92097 -1.10264,-4.09717 -1.24273,-4.836 -0.14007,-0.73884 -1.0322,-3.88224 -1.9825,-6.98535 -0.95029,-3.10311 -2.48304,-8.46327 -3.40613,-11.91148 -0.92307,-3.44821 -1.8227,-6.41359 -1.99916,-6.58973 -0.3069,-0.30635 -7.4507,4.20697 -8.00784,5.05921 -0.14778,0.22603 -1.05213,0.58094 -2.00967,0.78867 -0.95755,0.20773 -3.56439,1.568 -5.79296,3.02284 -2.22858,1.45483 -4.17121,2.64515 -4.31697,2.64515 -0.14574,0 -1.47457,0.83204 -2.95293,1.84897 -1.47836,1.01694 -3.10468,1.99686 -3.61405,2.17762 -0.84745,0.30074 -2.94062,3.00424 -7.90718,10.21276 -1.01809,1.47767 -2.56634,4.13747 -3.44057,5.91067 -1.48928,3.02076 -4.74727,12.11583 -5.19699,14.50802 -0.75231,4.00179 -2.86957,20.18013 -3.19959,24.44871 -0.3572,4.61996 -1.86479,20.17664 -2.39536,24.71736 -0.86885,7.43599 -1.29874,13.00517 -1.20285,15.5827 0.12222,3.2847 -1.21902,11.37885 -2.53759,15.31402 -0.59414,1.7732 -1.08622,3.63602 -1.09348,4.13959 -0.0181,1.25763 -2.78377,9.54187 -4.7469,14.21905 -1.62542,3.87255 -2.57946,5.65897 -6.98297,13.0754 -3.85103,6.48595 -10.46829,14.11445 -15.91691,18.34931 -0.86507,0.67236 -2.14343,1.75126 -2.8408,2.39756 -0.69736,0.64629 -2.64937,1.70247 -4.33781,2.34706 -1.68843,0.6446 -3.43258,1.34229 -3.87588,1.55045 -1.26445,0.59371 -3.93765,-0.0792 -5.62024,-1.41485 l -1.53592,-1.2192 2.23743,-9.25882 c 1.23058,-5.09235 2.37338,-10.95143 2.53955,-13.02017 0.16618,-2.06874 0.53592,-4.60764 0.82166,-5.64201 0.78144,-2.82888 2.60042,-15.08892 3.21028,-21.63762 0.81016,-8.6993 -0.42739,-9.46834 -1.40085,-0.87052 -0.054,0.47624 -0.26117,1.51586 -0.46055,2.31026 -0.89426,3.56302 -2.11945,11.62551 -2.78352,18.31721 -0.38098,3.8391 -2.39485,13.19089 -3.1821,14.77669 -0.36678,0.73883 -0.95938,2.67324 -1.31689,4.29867 -0.35751,1.62544 -0.87125,3.55984 -1.14165,4.29868 -0.27039,0.73884 -0.62939,2.53851 -0.79775,3.99928 -0.16836,1.46078 -0.408,2.82082 -0.53253,3.0223 -0.35337,0.57177 -0.33874,44.81766 0.0165,49.93584 0.17436,2.51203 0.58195,7.46894 0.90574,11.01535 0.32379,3.54639 0.54915,7.22368 0.50078,8.17172 -0.0848,1.66314 -0.0355,1.70512 1.40506,1.19425 0.82113,-0.29121 3.1254,-1.85273 5.12059,-3.47005 z M 353.57989,328.67147 c -0.38557,-0.46457 -0.43779,-0.806 -0.12329,-0.806 0.3001,0 0.68482,0.3627 0.85494,0.806 0.1701,0.4433 0.22558,0.806 0.12327,0.806 -0.10229,0 -0.48702,-0.3627 -0.85492,-0.806 z M 321.02594,196.91769 c 1.20702,-0.84074 3.23418,-3.07443 4.50481,-4.96377 1.93551,-2.87797 2.28414,-3.79119 2.14933,-5.63023 -0.13689,-1.86759 -0.42147,-2.32527 -1.90736,-3.06753 -2.32357,-1.16074 -4.29743,-0.6703 -7.04908,1.75142 -2.56553,2.25794 -2.69378,2.61369 -0.94226,2.61369 2.59982,0 3.10604,2.54537 0.90277,4.5393 -0.82874,0.74999 -1.23262,0.80389 -2.18887,0.29213 -0.93463,-0.50019 -1.12919,-0.99965 -0.9586,-2.46083 0.11771,-1.0083 0.17867,-1.83327 0.13547,-1.83327 -0.33347,0 -2.39233,2.09879 -2.39233,2.43873 0,0.23759 -0.33578,0.81373 -0.7462,1.28031 -0.4104,0.46657 -0.90623,1.60236 -1.10184,2.524 -0.30668,1.44495 -0.11504,1.87816 1.39162,3.14593 1.45716,1.22613 2.10096,1.42278 3.87762,1.18448 1.17169,-0.15715 3.1179,-0.97362 4.32492,-1.81436 z m 32.5241,-9.19064 c 3.67776,-3.64884 7.36522,-6.98506 8.19435,-7.41383 0.82913,-0.42876 1.50751,-0.98569 1.50751,-1.23763 0,-0.85142 9.92121,-7.91689 12.49302,-8.897 1.40378,-0.53497 2.55233,-1.18163 2.55233,-1.43701 0,-0.25539 0.54405,-0.47203 1.209,-0.48143 0.66495,-0.009 1.66927,-0.36544 2.23182,-0.79121 0.88298,-0.66829 0.9084,-0.81804 0.18589,-1.09528 -1.43027,-0.54885 -12.31076,4.09225 -14.67669,6.26037 -0.61011,0.55911 -1.29398,1.01655 -1.51968,1.01655 -0.22571,0 -1.31229,0.96721 -2.41461,2.14934 -1.10232,1.18213 -2.29242,2.14934 -2.64465,2.14934 -0.35225,0 -0.6409,0.18134 -0.64147,0.40299 -5.4e-4,0.22165 -1.23701,1.24543 -2.74764,2.27504 -2.93792,2.00244 -7.99194,7.20731 -8.00729,8.24629 -0.005,0.34559 -0.5853,1.17439 -1.28934,1.84179 -1.20508,1.14235 -4.08175,6.07097 -4.06876,6.97102 0.003,0.2271 0.66823,-0.42815 1.47767,-1.45609 0.80944,-1.02795 4.48078,-4.85441 8.15854,-8.50325 z m -27.37419,-47.62814 c 0,-0.13032 0.24179,-0.38639 0.53733,-0.56904 0.29553,-0.18265 0.53734,-0.076 0.53734,0.23695 0,0.31298 -0.24181,0.56905 -0.53734,0.56905 -0.29554,0 -0.53733,-0.10663 -0.53733,-0.23696 z"/>
  </g>
</svg>
