<svg xmlns="http://www.w3.org/2000/svg" viewBox="0 0 546 280">
    <path
        d="M495.54 250.549c-17.01-4.333-28.776-21.97-46.24-22.708-39.122-2.802-75.153-21.509-114.545-22.72-43.143-3.792-85.879 5.37-128.964 5.653-10.967 1.622-21.703 1.23-32.423-1.492-24.884-4.652-50.162-7.816-73.89-17.16-18.846-7.244-41.438-7.998-57.031-21.727-13.162-18.694 14.633-38.266 30.127-45.037 34.958-11.575 72.14-14.889 108.648-18.024 19.95-2.228 45.786 2.79 58.944-16.129 12.258-24.443 20.223-52.751 41.245-71.517 15.978-2.673-.442 25.313 1.63 35.098.955 18.727-8.608 44.524 7.123 58.398 24.504 11.165 51.825 15.311 76.164 27.244 32.95 15.448 66.6 34.281 88.478 64.208 10.229-2.837 30.643-5.44 34.863 3.237-20.157 10.602 4.727 31.517 13.978 41.402 6.251 4.598-7.054 1.996-8.108 1.274zm-.938-5.524c-3.266-9.066-36.88-23.672-36.825-29.257 3.507-7.091 29.09-4.147 13.772-1.06-9.91-1.19-4.25 16.376 13.24 22.957 1.5 10.476-45.803-19.272-50.85-28.244-19.547-.667-20.643-5.627-37.886-12.524-32.517-10.084-84.2-9.426-112.077-32.905-20.022-10.63-27.065-8.516-25.377-27.46-2.443-9.944 3.423-6.338 1.916-1.621-2.836 5.998 25.481 23.323 22.668 22.93-7.252 1.938 12.59-.22 5.814 3.357 14.668-12.282 7.633 43.238.784 25.396-8.026-4.53-63.021-20.816-73.077-29.28-31.63-9.944-63.566 4.945-94.888 8.897-25.034.54-33.165-.446-57.357-2.602-10.464 3.781-30.145 6.13-10.988-.556 6.322-2.184 37.095 1.495 15.558 2.14-4.607.972 25.065-5.344 38.497-.395 19.152-3.596 1.808-24.638 15.564-17.31 7.496-4.037 7.397 14.636 5.725 16.398 26.657-19.418 63.234-24.256 94.814-15.384 20.937 6.126 80.454 16.19 97.251 27.908 13.221 9.883-1.824-2.398 15.714-.45 24.049.685 43.15 15.515 66.577 23.128 17.976 3.806 39.067 8.745 48.372 26.459-.897-2.334-20.801-20.35-8.084-12.183 46.38 5.538 47.65 26.94 54.787 35.626l-.938-1.165-2.706-2.8zM84.262 158.35c.467-8.43 10.459 3.684 0 0z"/>
    <path
        d="M44.38 172.36c-1.245-2.986 2.395-3.51 10.79-4.883 3.468-.567 27.105-2.618 27.854-2.56 2.838.222 6.661 1.464 10.928 2.89 7.886 2.637 11.974 4.98 18.692 8.789 6.717 3.808 9.053 6.151 12.85 8.202 2.447 1.321 12.293 5.076 20.392 8.363 4.468 1.813 8.405 3.484 10.274 4.526 5.257 2.93 15.771 4.101 20.444 6.445 4.673 2.343 12.267 2.05 15.187 2.05 2.921 0 44.393-2.343 54.031-3.808 9.638-1.465 28.33-3.808 43.517-2.93 15.187.88 47.313-.292 59.872 2.051 12.558 2.344 37.383 7.91 42.348 8.495 4.965.586 50.407 14.354 53.328 14.354 2.92 0 5.22-3.122 5.22-3.122l1.537.657 8.759 8.48s-39.845-5.772-45.771-7.773c-5.918-1.997-25.701-6.737-35.631-9.08-9.93-2.344-28.914-6.445-36.8-6.738-7.885-.293-43.224-2.344-54.323-.879-11.098 1.465-31.25 3.808-36.507 3.808-5.257 0-61.624 3.223-63.668 3.223-2.045 0-48.19-7.03-51.987-8.203-3.797-1.171-8.47-2.929-15.77-5.565-7.302-2.637-41.242-11.338-46.146-12.743-5.111-1.465-20.444-6.445-25.41-9.813-2.57-1.745-3.133-2.771-4.01-4.236z"
        fill="#fff"
        stroke="#000"/>
    <path
        d="M124.187 184.298c3.222 3.808 5.566 9.667 7.323 14.354 1.758 4.686 3.223 7.323 6.738 13.767 3.515 6.445 9.373 14.354 16.404 19.92 7.03 5.565 16.404 11.13 21.09 13.474 4.687 2.344 11.132 4.394 13.475 2.93 2.344-1.465 6.152-5.566 6.152-8.203 0-2.636-2.637-16.404-4.394-22.262-1.758-5.859-11.424-20.212-13.768-23.435-2.343-3.222-16.697-12.01-18.747-12.888-2.05-.88-6.152-2.637-6.152-2.637"
        stroke="#000"/>
    <path
        d="M268.443 204.19c-5.8-5.386-11.658-7.871-8.758-19.885 2.9-12.014 31.543-18.642 44.8-16.57 13.256 2.07 51.368 6.213 55.51 11.599 4.143 5.385-3.728 7.87-9.528 7.87-5.8 0-19.47 1.658-22.784 2.9-3.314 1.243 2.485 14.086 2.485 14.086h-61.725z"
        fill="#fff"/>
    <path d="M122.258 152.118a18.282 8.294-9.379 1 1-36.177 4.72 18.282 8.294-9.379 1 1 36.177-4.72z" fill="#fff"/>
</svg>
